<?xml version="1.0" encoding="UTF-8"?>
<!DOCTYPE svg PUBLIC "-//W3C//DTD SVG 1.1//EN" "http://www.w3.org/Graphics/SVG/1.1/DTD/svg11.dtd">
<!-- Creator: CorelDRAW X7 -->
<svg xmlns="http://www.w3.org/2000/svg" xml:space="preserve" width="32px" height="32px" version="1.1" style="shape-rendering:geometricPrecision; text-rendering:geometricPrecision; image-rendering:optimizeQuality; fill-rule:evenodd; clip-rule:evenodd"
viewBox="0 0 32 32"
 xmlns:xlink="http://www.w3.org/1999/xlink">
 <defs>
  <style type="text/css">
   <![CDATA[
    .fil1 {fill:none}
    .fil0 {fill:#2556A1}
    .fil2 {fill:#FEFEFE;fill-rule:nonzero}
   ]]>
  </style>
 </defs>
 <g id="Camada_x0020_1">
  <metadata id="CorelCorpID_0Corel-Layer"/>
  <g id="_962583442960">
   <rect class="fil0" width="32.0004" height="32.0004" rx="3" ry="3"/>
   <path class="fil1" d="M20 32l0 -21c0,-2 2,-4 4,-4l3 0"/>
   <path class="fil2" d="M13 15l4 0 0 -4c0,-2 1,-3 2,-4 1,-1 3,-2 5,-2l3 0 0 5 -3 0c-1,0 -1,0 -1,0 -1,1 -1,1 -1,1l0 4 5 0 0 5 -5 0 0 12 -5 0 0 -12 -4 0 0 -5z"/>
  </g>
 </g>
</svg>
